<svg width="41" height="40" viewBox="0 0 41 40" fill="none" xmlns="http://www.w3.org/2000/svg">
<g clip-path="url(#clip0)">
<path d="M20.51 0C9.46441 0 0.51001 8.9544 0.51001 20C0.51001 31.0456 9.46441 40 20.51 40C31.5556 40 40.51 31.0456 40.51 20C40.51 8.9544 31.5556 0 20.51 0ZM29.183 22.6436C29.3403 22.8382 29.7146 23.2175 30.3068 23.782H30.3206L30.3344 23.7954L30.3482 23.8096L30.3762 23.8372C31.6805 25.0491 32.5639 26.0716 33.0267 26.9042C33.0546 26.95 33.0847 27.0084 33.1171 27.0778C33.1491 27.1472 33.1816 27.2696 33.214 27.4452C33.2461 27.6217 33.2436 27.7782 33.2071 27.9169C33.1702 28.0552 33.0546 28.1834 32.8604 28.2986C32.6661 28.4146 32.3931 28.4722 32.0415 28.4722L28.489 28.5282C28.2671 28.5744 28.008 28.5513 27.7119 28.4588C27.4154 28.3659 27.1753 28.2641 26.9904 28.1534L26.7126 27.9863C26.4347 27.792 26.1111 27.496 25.7412 27.0985C25.3709 26.7006 25.0541 26.3421 24.7905 26.0229C24.5269 25.7037 24.2446 25.436 23.9436 25.2178C23.6427 25.0004 23.3815 24.9286 23.1597 25.0028C23.1321 25.0126 23.0948 25.0288 23.0485 25.0515C23.0019 25.0746 22.9236 25.1412 22.8125 25.2527C22.7014 25.3638 22.602 25.5005 22.514 25.6619C22.426 25.8241 22.3473 26.0646 22.2779 26.3838C22.2086 26.7026 22.1782 27.0616 22.1879 27.4594C22.1879 27.5978 22.1713 27.7255 22.1392 27.8411C22.1068 27.9567 22.0719 28.0423 22.035 28.0974L21.9794 28.1668C21.8127 28.3432 21.5678 28.4446 21.2441 28.4722H19.6482C18.9911 28.5095 18.3158 28.4332 17.6223 28.2434C16.9287 28.0532 16.32 27.8086 15.7976 27.5077C15.2744 27.2076 14.7982 26.9022 14.3683 26.5923C13.938 26.282 13.6119 26.0164 13.39 25.7945L13.0433 25.4612C12.9508 25.3691 12.8235 25.23 12.6616 25.0446C12.4998 24.8597 12.1692 24.4391 11.6696 23.782C11.1699 23.125 10.6795 22.427 10.1985 21.6864C9.71749 20.9462 9.15089 19.97 8.49833 18.7581C7.84617 17.5466 7.24265 16.2885 6.68741 14.9838C6.63185 14.8362 6.60385 14.7112 6.60385 14.6094C6.60385 14.508 6.61765 14.4338 6.64565 14.3872L6.70121 14.304C6.83989 14.128 7.10353 14.04 7.49209 14.04L11.2944 14.0124C11.4055 14.0311 11.5118 14.0611 11.6136 14.1028C11.7154 14.1442 11.7896 14.1836 11.8358 14.2205L11.9052 14.2622C12.0533 14.3644 12.164 14.5121 12.2382 14.7064C12.4231 15.1695 12.6361 15.6481 12.8766 16.1429C13.1171 16.6377 13.3069 17.0149 13.4456 17.2737L13.6674 17.6764C13.9355 18.2313 14.1947 18.7127 14.4445 19.1195C14.6948 19.5267 14.9187 19.8438 15.1178 20.0702C15.3165 20.2969 15.5084 20.4754 15.6937 20.6043C15.8787 20.7341 16.036 20.799 16.1658 20.799C16.2952 20.799 16.4201 20.7759 16.5406 20.7296C16.5588 20.7203 16.582 20.6972 16.6099 20.6603C16.6379 20.6234 16.6931 20.5216 16.7766 20.3545C16.8598 20.1882 16.9222 19.9708 16.964 19.7023C17.0058 19.4346 17.0496 19.0599 17.0958 18.5788C17.142 18.0974 17.142 17.5195 17.0958 16.8442C17.0772 16.4739 17.0354 16.1364 16.9709 15.831C16.906 15.526 16.8411 15.3131 16.7766 15.1926L16.6931 15.0264C16.4619 14.712 16.0689 14.5129 15.5137 14.4294C15.3932 14.4115 15.4163 14.3004 15.583 14.0968C15.7404 13.9208 15.916 13.7824 16.1103 13.6802C16.6006 13.4401 17.7063 13.329 19.4271 13.3468C20.1855 13.3566 20.8101 13.4162 21.3005 13.5273C21.4855 13.574 21.6404 13.636 21.7653 13.7147C21.8902 13.793 21.9851 13.9045 22.05 14.0473C22.1145 14.1909 22.1632 14.3389 22.1956 14.4914C22.2281 14.6443 22.2443 14.8552 22.2443 15.1229C22.2443 15.3914 22.2398 15.6461 22.2305 15.8862C22.2212 16.1267 22.2098 16.4532 22.196 16.8644C22.1822 17.2761 22.1749 17.6582 22.1749 18.0094C22.1749 18.1116 22.1705 18.3055 22.1611 18.5922C22.1518 18.8794 22.149 19.1012 22.1542 19.2582C22.1587 19.4156 22.1749 19.6034 22.2025 19.8203C22.2305 20.0377 22.2836 20.2186 22.3623 20.3614C22.4406 20.505 22.5448 20.6181 22.6746 20.7012C22.7484 20.7203 22.8271 20.7386 22.9107 20.7572C22.9938 20.7755 23.1138 20.7252 23.2712 20.6043C23.4282 20.4843 23.6042 20.3245 23.7985 20.1257C23.9927 19.9274 24.2332 19.6175 24.52 19.1962C24.8063 18.776 25.121 18.2783 25.4634 17.7044C26.0186 16.7424 26.5134 15.7012 26.9482 14.5818C26.9851 14.489 27.0313 14.4082 27.0869 14.3389C27.1425 14.2692 27.1932 14.2205 27.2394 14.1929L27.295 14.1511C27.3132 14.1418 27.3363 14.1304 27.3643 14.1166C27.3923 14.1033 27.4523 14.0891 27.5448 14.0749C27.6373 14.0615 27.7298 14.059 27.8227 14.0684L31.8192 14.04C32.1798 13.9942 32.4758 14.0055 32.7071 14.0745C32.9382 14.1438 33.0818 14.2205 33.1374 14.3036L33.2209 14.4423C33.4334 15.0349 32.7399 16.394 31.1395 18.5221C30.9172 18.8186 30.6163 19.212 30.2375 19.7019C29.5159 20.6274 29.0998 21.2334 28.9895 21.5209C28.8313 21.8993 28.8962 22.2741 29.183 22.6436Z" fill="#F6F9F8"/>
</g>
<defs>
<clipPath id="clip0">
<rect width="40" height="40" fill="white" transform="translate(0.51001)"/>
</clipPath>
</defs>
</svg>
