<svg width="41" height="40" viewBox="0 0 41 40" fill="none" xmlns="http://www.w3.org/2000/svg">
<g clip-path="url(#clip0)">
<path d="M20.51 0C9.46441 0 0.51001 8.9544 0.51001 20C0.51001 31.0456 9.46441 40 20.51 40C31.5556 40 40.51 31.0456 40.51 20C40.51 8.9544 31.5556 0 20.51 0ZM26.3861 11.4638C25.4354 11.4638 24.4786 11.4638 23.5283 11.4638C22.9268 11.4248 22.3063 11.8839 22.1964 12.4854C22.1835 13.5265 22.1899 14.5672 22.1899 15.6084C23.5863 15.6149 24.9832 15.6084 26.38 15.6149C26.2766 17.1212 26.0892 18.6214 25.8694 20.1087C24.6344 20.1217 23.3994 20.1087 22.1644 20.1152C22.1514 24.5571 22.1709 28.9925 22.1579 33.4349C20.3214 33.4414 18.4918 33.4284 16.6554 33.4414C16.6229 28.9994 16.6554 24.5575 16.6359 20.1152C15.7436 20.1087 14.8448 20.1217 13.9526 20.1087C13.9591 18.615 13.9526 17.1216 13.9526 15.6343C14.8448 15.6214 15.7436 15.6343 16.6359 15.6278C16.6618 14.1795 16.6099 12.7247 16.6618 11.2764C16.7588 10.1188 17.192 8.96172 18.0522 8.16636C19.0933 7.17716 20.5672 6.84092 21.964 6.802C23.4383 6.789 24.9126 6.79552 26.3865 6.79552C26.3926 8.35376 26.3926 9.90552 26.3861 11.4638Z" fill="#F6F9F8"/>
</g>
<defs>
<clipPath id="clip0">
<rect width="40" height="40" fill="white" transform="translate(0.51001)"/>
</clipPath>
</defs>
</svg>
