<svg width="34" height="33" viewBox="0 0 34 33" fill="none" xmlns="http://www.w3.org/2000/svg">
<path d="M14.7291 2.41461C14.0192 2.49595 13.3982 2.81901 12.9852 3.28369C5.80744 3.38677 0 9.1971 0 16.326C0 23.455 5.80744 29.2656 12.9852 29.3686C13.3981 29.833 14.0185 30.1559 14.7278 30.2374C15.0451 31.5464 16.2263 32.5215 17.6316 32.5215H20.7098C22.1149 32.5215 23.2961 31.5464 23.6135 30.2374C24.8953 30.0903 25.8869 29.1534 25.8869 28.0226V26.8795C25.8869 25.6468 24.7089 24.6441 23.2608 24.6441H15.0805C14.2711 24.6441 13.5462 24.9575 13.0642 25.449C8.0265 25.3881 3.94708 21.3193 3.94708 16.326C3.94708 11.3328 8.02641 7.26419 13.064 7.20294C13.5461 7.69486 14.271 8.00845 15.0805 8.00845H23.2608C24.6483 8.00845 25.7872 7.0873 25.8801 5.9257H28.1816C29.7528 5.9257 31.031 7.20381 31.031 8.77503V11.1197C30.1479 11.4218 29.511 12.2594 29.511 13.2433V14.8062C29.511 16.0438 30.5179 17.0506 31.7555 17.0506C32.9932 17.0506 34 16.0437 34 14.8062V13.2433C34 12.2593 33.3632 11.4218 32.4801 11.1197V8.77503C32.4801 6.40497 30.5518 4.47659 28.1816 4.47659H25.8801C25.7954 3.41507 24.8362 2.55459 23.6122 2.41461C23.2949 1.10587 22.1146 0.130527 20.7097 0.130527H17.6315C16.2265 0.130623 15.0464 1.10587 14.7291 2.41461ZM22.0638 30.2582C21.8045 30.7418 21.2961 31.0724 20.7098 31.0724H17.6316C17.0454 31.0724 16.5366 30.7418 16.2773 30.2582H22.0638ZM32.5509 13.2433V14.8062C32.5509 15.2447 32.1941 15.6015 31.7555 15.6015C31.3169 15.6015 30.9601 15.2447 30.9601 14.8062V13.2433C30.9601 12.8048 31.3169 12.448 31.7555 12.448C32.1941 12.448 32.5509 12.8048 32.5509 13.2433ZM23.2608 26.0932C23.8877 26.0932 24.4378 26.4606 24.4378 26.8795V28.0227C24.4378 28.4416 23.8878 28.8092 23.2608 28.8092H15.0805C14.4535 28.8092 13.9034 28.4416 13.9034 28.0227V26.8795C13.9034 26.4606 14.4534 26.0932 15.0805 26.0932H23.2608ZM2.49797 16.326C2.49797 21.9151 6.90171 26.5042 12.4546 26.8742C12.4546 26.8761 12.4544 26.8777 12.4544 26.8795V27.8989C6.32274 27.5276 1.44911 22.4795 1.44911 16.326C1.44911 10.1728 6.32284 5.12473 12.4544 4.75337V5.77267C12.4544 5.77422 12.4546 5.77567 12.4546 5.77721C6.90171 6.14722 2.49797 10.7368 2.49797 16.326ZM23.2608 3.84314C23.8877 3.84314 24.4378 4.21054 24.4378 4.62962V5.77267C24.4378 6.19175 23.8878 6.55934 23.2608 6.55934H15.0805C14.4535 6.55934 13.9034 6.19175 13.9034 5.77267V4.62962C13.9034 4.21054 14.4534 3.84314 15.0805 3.84314H23.2608ZM20.7098 1.57973C21.2961 1.57973 21.8048 1.91032 22.064 2.39413H16.2777C16.537 1.91032 17.0453 1.57973 17.6316 1.57973H20.7098Z" fill="white"/>
</svg>
