<svg width="33" height="32" viewBox="0 0 33 32" fill="none" xmlns="http://www.w3.org/2000/svg">
<circle cx="16.51" cy="16" r="15" stroke="#F6F9F8" stroke-width="2"/>
<path d="M19.79 8.6C19.6828 9.12794 19.6828 9.67206 19.79 10.2H10.5188L16.5588 15.5296L20.598 11.9136C20.9388 12.3352 21.3644 12.6864 21.8484 12.9416L16.5676 17.6704L10.11 11.9728V21.4H22.91V13.32C23.438 13.4273 23.9821 13.4273 24.51 13.32V22.2C24.51 22.4122 24.4257 22.6157 24.2757 22.7657C24.1257 22.9157 23.9222 23 23.71 23H9.31001C9.09784 23 8.89435 22.9157 8.74432 22.7657C8.5943 22.6157 8.51001 22.4122 8.51001 22.2V9.4C8.51001 9.18783 8.5943 8.98434 8.74432 8.83431C8.89435 8.68429 9.09784 8.6 9.31001 8.6H19.79ZM23.71 11.8C23.3948 11.8 23.0828 11.7379 22.7916 11.6173C22.5004 11.4967 22.2358 11.3199 22.013 11.0971C21.7901 10.8742 21.6133 10.6096 21.4927 10.3184C21.3721 10.0273 21.31 9.71517 21.31 9.4C21.31 9.08483 21.3721 8.77274 21.4927 8.48156C21.6133 8.19038 21.7901 7.9258 22.013 7.70294C22.2358 7.48008 22.5004 7.3033 22.7916 7.18269C23.0828 7.06208 23.3948 7 23.71 7C24.3465 7 24.957 7.25286 25.4071 7.70294C25.8572 8.15303 26.11 8.76348 26.11 9.4C26.11 10.0365 25.8572 10.647 25.4071 11.0971C24.957 11.5471 24.3465 11.8 23.71 11.8Z" fill="#F6F9F8"/>
</svg>
