<svg width="41" height="40" viewBox="0 0 41 40" fill="none" xmlns="http://www.w3.org/2000/svg">
<g clip-path="url(#clip0)">
<path d="M25.7212 9.92456H15.1992C12.5662 9.92456 10.4239 12.0668 10.4239 14.6999V25.3184C10.4239 27.9514 12.5662 30.0937 15.1992 30.0937H25.7212C28.3542 30.0937 30.4965 27.9514 30.4965 25.3184V14.6999C30.4965 12.0668 28.3542 9.92456 25.7212 9.92456ZM20.4803 26.3672C16.9112 26.3672 14.0076 23.4945 14.0076 19.9635C14.0076 16.4325 16.9116 13.5598 20.4803 13.5598C24.049 13.5598 26.953 16.4325 26.953 19.9635C26.953 23.4945 24.0494 26.3672 20.4803 26.3672ZM27.0682 14.8207C26.227 14.8207 25.5452 14.139 25.5452 13.2978C25.5452 12.4566 26.227 11.7748 27.0682 11.7748C27.9093 11.7748 28.5911 12.4566 28.5911 13.2978C28.5911 14.139 27.9093 14.8207 27.0682 14.8207Z" fill="#F6F9F8"/>
<path d="M20.51 0C9.46441 0 0.51001 8.9544 0.51001 20C0.51001 31.0456 9.46441 40 20.51 40C31.5556 40 40.51 31.0456 40.51 20C40.51 8.9544 31.5556 0 20.51 0ZM32.8587 25.3184C32.8587 29.2541 29.6567 32.4558 25.7213 32.4558H15.1993C11.2636 32.4558 8.06193 29.2537 8.06193 25.3184V14.6999C8.06193 10.7641 11.264 7.56244 15.1993 7.56244H25.7213C29.6571 7.56244 32.8587 10.7645 32.8587 14.6999V25.3184Z" fill="#F6F9F8"/>
<path d="M20.4803 15.9174C18.2111 15.9174 16.3653 17.7324 16.3653 19.9635C16.3653 22.1946 18.2111 24.0095 20.4803 24.0095C22.7495 24.0095 24.5953 22.1946 24.5953 19.9635C24.5953 17.7324 22.7495 15.9174 20.4803 15.9174Z" fill="#F6F9F8"/>
</g>
<defs>
<clipPath id="clip0">
<rect width="40" height="40" fill="white" transform="translate(0.51001)"/>
</clipPath>
</defs>
</svg>
