<svg width="33" height="32" viewBox="0 0 33 32" fill="none" xmlns="http://www.w3.org/2000/svg">
<path d="M11.7322 14.9289C13.0122 17.4444 15.07 19.5022 17.59 20.7822L19.5456 18.8222C19.79 18.5778 20.1411 18.5067 20.4478 18.6044C21.4433 18.9333 22.5145 19.1111 23.6211 19.1111C24.1145 19.1111 24.51 19.5067 24.51 20V23.1111C24.51 23.6044 24.1145 24 23.6211 24C15.2745 24 8.51001 17.2356 8.51001 8.88889C8.51001 8.39556 8.91001 8 9.3989 8H12.51C13.0033 8 13.3989 8.39556 13.3989 8.88889C13.3989 9.99556 13.5767 11.0667 13.9056 12.0622C14.0033 12.3689 13.9322 12.72 13.6878 12.9644L11.7322 14.9289Z" fill="#C15B5A"/>
<circle cx="16.51" cy="16" r="15" stroke="#FBDA81" stroke-width="2"/>
</svg>
