<svg width="41" height="40" viewBox="0 0 41 40" fill="none" xmlns="http://www.w3.org/2000/svg">
<path fill-rule="evenodd" clip-rule="evenodd" d="M40.51 20C40.51 31.0457 31.5557 40 20.51 40C9.46433 40 0.51001 31.0457 0.51001 20C0.51001 8.95432 9.46433 0 20.51 0C31.5557 0 40.51 8.95432 40.51 20ZM21.2267 14.7648L9.56311 19.7888L9.56307 19.7889C8.61631 20.1655 8.12035 20.5337 8.07523 20.8939C7.99889 21.5025 8.76118 21.7422 9.79919 22.0686C9.94034 22.113 10.0866 22.159 10.2365 22.2077C11.2577 22.5397 12.6313 22.928 13.3454 22.9434C13.9931 22.9574 14.7161 22.6903 15.5143 22.1422C20.9619 18.4649 23.7739 16.6063 23.9504 16.5662C24.075 16.5383 24.2476 16.5023 24.3645 16.6063C24.4815 16.7103 24.4696 16.9071 24.4576 16.9599C24.3822 17.2817 21.3929 20.0608 19.844 21.5009C19.3602 21.9507 19.0169 22.2699 18.9468 22.3427C18.79 22.5056 18.6302 22.6596 18.4766 22.8077C17.5279 23.7222 16.8165 24.408 18.516 25.5279L22.9794 28.5261C23.2135 28.6795 23.4371 28.8389 23.6549 28.9942C24.4835 29.5849 25.228 30.1156 26.1477 30.031C26.6825 29.9819 27.2341 29.4793 27.5145 27.9805C28.177 24.4385 29.4794 16.764 29.7804 13.6016C29.8068 13.3245 29.7736 12.9698 29.747 12.8142C29.7203 12.6586 29.6647 12.4368 29.4623 12.2726C29.2227 12.0782 28.8527 12.0372 28.6873 12.0401C27.935 12.0533 26.781 12.4546 21.2267 14.7648Z" fill="#F6F9F8"/>
</svg>
