<svg width="41" height="40" viewBox="0 0 41 40" fill="none" xmlns="http://www.w3.org/2000/svg">
<g clip-path="url(#clip0)">
<path d="M21.3244 8.46936C15.7517 8.46936 11.2197 13.0009 11.2177 18.5712C11.2169 20.4802 11.751 22.339 12.7622 23.9476L13.0022 24.3296L11.9818 28.0577L15.8052 27.0547L16.1743 27.2737C17.7252 28.1944 19.5033 28.6811 21.3162 28.6819H21.3203C26.8885 28.6819 31.4205 24.15 31.4229 18.5793C31.4241 15.8798 30.3741 13.3416 28.4666 11.4322C26.5592 9.52228 24.0227 8.4702 21.3244 8.46936ZM27.2669 22.9146C27.0138 23.6239 25.8004 24.2716 25.2171 24.3584C24.6939 24.4367 24.0316 24.4691 23.3044 24.238C22.8636 24.098 22.2978 23.911 21.573 23.5984C18.5258 22.283 16.5361 19.2152 16.3844 19.0128C16.2327 18.8101 15.1441 17.3662 15.1441 15.8712C15.1441 14.3762 15.9285 13.6418 16.2072 13.3376C16.4854 13.0334 16.8147 12.9575 17.0171 12.9575C17.2195 12.9575 17.4223 12.9596 17.5991 12.9681C17.7857 12.9774 18.0359 12.8975 18.2825 13.4892C18.5356 14.0976 19.1432 15.5922 19.219 15.7443C19.2948 15.8964 19.3455 16.0736 19.2442 16.2764C19.1428 16.4788 19.0924 16.6057 18.9404 16.783C18.7883 16.9602 18.6216 17.1788 18.4849 17.3151C18.3328 17.4664 18.1746 17.631 18.3519 17.9348C18.5291 18.239 19.1387 19.2335 20.0415 20.0386C21.2015 21.0732 22.1802 21.394 22.4839 21.5461C22.7877 21.6982 22.965 21.6726 23.1418 21.4703C23.319 21.2675 23.901 20.5833 24.1034 20.2795C24.3058 19.9757 24.5082 20.026 24.7868 20.1274C25.065 20.2288 26.5584 20.9633 26.8622 21.1154C27.166 21.2675 27.3683 21.3433 27.4442 21.4703C27.52 21.5968 27.52 22.2052 27.2669 22.9146Z" fill="#F6F9F8"/>
<path d="M20.51 0C9.46441 0 0.51001 8.9544 0.51001 20C0.51001 31.0456 9.46441 40 20.51 40C31.5556 40 40.51 31.0456 40.51 20C40.51 8.9544 31.5556 0 20.51 0ZM21.3204 30.7345C21.32 30.7345 21.3208 30.7345 21.3204 30.7345H21.3155C19.2811 30.7337 17.2824 30.2235 15.5072 29.255L9.06369 30.9454L10.7882 24.6468C9.72441 22.8034 9.16469 20.7122 9.16593 18.5703C9.16793 11.8685 14.621 6.41628 21.3204 6.41628C24.5719 6.41752 27.6239 7.68332 29.9187 9.98092C32.2134 12.2782 33.4769 15.3322 33.4752 18.5801C33.4724 25.2819 28.0193 30.7345 21.3204 30.7345Z" fill="#F6F9F8"/>
</g>
<defs>
<clipPath id="clip0">
<rect width="40" height="40" fill="white" transform="translate(0.51001)"/>
</clipPath>
</defs>
</svg>
