<svg width="33" height="32" viewBox="0 0 33 32" fill="none" xmlns="http://www.w3.org/2000/svg">
<g clip-path="url(#clip0)">
<path d="M17.1615 6.77539C12.7033 6.77539 9.07777 10.4006 9.07617 14.8568C9.0755 16.3841 9.50283 17.8711 10.3117 19.158L10.5038 19.4636L9.68744 22.4461L12.7462 21.6437L13.0415 21.8189C14.2822 22.5554 15.7047 22.9448 17.155 22.9454H17.1583C21.6128 22.9454 25.2384 19.3199 25.2403 14.8633C25.2413 12.7037 24.4013 10.6732 22.8753 9.14563C21.3494 7.61773 19.3201 6.77606 17.1615 6.77539ZM21.9155 18.3316C21.7131 18.899 20.7423 19.4172 20.2757 19.4866C19.8571 19.5492 19.3273 19.5752 18.7455 19.3903C18.3928 19.2783 17.9402 19.1287 17.3604 18.8786C14.9227 17.8263 13.3309 15.3721 13.2095 15.2102C13.0882 15.048 12.2173 13.8929 12.2173 12.6969C12.2173 11.5009 12.8448 10.9133 13.0677 10.67C13.2903 10.4266 13.5538 10.3659 13.7157 10.3659C13.8776 10.3659 14.0398 10.3676 14.1813 10.3744C14.3305 10.3818 14.5307 10.3179 14.728 10.7913C14.9305 11.278 15.4165 12.4737 15.4772 12.5953C15.5379 12.717 15.5784 12.8588 15.4973 13.021C15.4162 13.1829 15.3759 13.2845 15.2543 13.4263C15.1326 13.5681 14.9992 13.743 14.8899 13.852C14.7682 13.973 14.6417 14.1047 14.7835 14.3478C14.9253 14.5911 15.4129 15.3867 16.1352 16.0308C17.0632 16.8585 17.8461 17.1151 18.0891 17.2368C18.3322 17.3585 18.474 17.338 18.6154 17.1761C18.7572 17.0139 19.2228 16.4665 19.3847 16.2235C19.5466 15.9805 19.7085 16.0207 19.9314 16.1018C20.154 16.1829 21.3487 16.7705 21.5917 16.8922C21.8348 17.0139 21.9966 17.0746 22.0573 17.1761C22.118 17.2773 22.118 17.7641 21.9155 18.3316Z" fill="#46C0C1"/>
<path d="M16.51 0C7.67353 0 0.51001 7.16352 0.51001 16C0.51001 24.8365 7.67353 32 16.51 32C25.3465 32 32.51 24.8365 32.51 16C32.51 7.16352 25.3465 0 16.51 0ZM17.1583 24.5876C17.158 24.5876 17.1586 24.5876 17.1583 24.5876H17.1544C15.5269 24.5869 13.9279 24.1788 12.5077 23.404L7.35295 24.7563L8.7326 19.7174C7.88153 18.2427 7.43375 16.5698 7.43475 14.8563C7.43635 9.49482 11.7988 5.13302 17.1583 5.13302C19.7595 5.13402 22.2011 6.14666 24.037 7.98474C25.8728 9.82253 26.8835 12.2657 26.8822 14.8641C26.8799 20.2255 22.5175 24.5876 17.1583 24.5876Z" fill="#46C0C1"/>
</g>
<defs>
<clipPath id="clip0">
<rect width="32" height="32" fill="white" transform="translate(0.51001)"/>
</clipPath>
</defs>
</svg>
